<svg width="16" height="17" viewBox="0 0 16 17" fill="none" xmlns="http://www.w3.org/2000/svg">
<g clip-path="url(#clip0_44_10120)">
<path d="M5.19661 15.0985C10.8882 15.0985 14.0016 10.3826 14.0016 6.30006C14.0016 6.16809 14.0016 6.03424 13.996 5.90227C14.6022 5.46347 15.1253 4.9202 15.541 4.29793C14.9747 4.54758 14.3747 4.71212 13.7603 4.78621C14.4075 4.39939 14.8922 3.79077 15.1243 3.07346C14.5163 3.43366 13.8508 3.68652 13.1571 3.82096C12.6906 3.32422 12.0734 2.99515 11.401 2.88471C10.7286 2.77427 10.0386 2.88863 9.43779 3.21008C8.83698 3.53153 8.35893 4.04213 8.07769 4.66278C7.79645 5.28343 7.72772 5.9795 7.88214 6.64317C6.65177 6.58148 5.44811 6.26185 4.34923 5.70502C3.25034 5.14819 2.28078 4.36659 1.50341 3.41092C1.10877 4.09251 0.988337 4.89876 1.16656 5.66592C1.34478 6.43309 1.80831 7.10367 2.463 7.54149C1.9724 7.52483 1.49259 7.39309 1.06226 7.1569V7.19932C1.06311 7.91334 1.31046 8.60517 1.76251 9.15787C2.21456 9.71056 2.84358 10.0902 3.54325 10.2327C3.27767 10.3058 3.00334 10.3423 2.72788 10.3411C2.53368 10.3417 2.33988 10.3237 2.14911 10.2874C2.34686 10.902 2.73191 11.4394 3.25032 11.8243C3.76874 12.2092 4.39456 12.4223 5.04013 12.4337C3.94344 13.2951 2.58875 13.7622 1.19423 13.76C0.948508 13.761 0.702957 13.7468 0.458984 13.7176C1.87435 14.6199 3.51808 15.099 5.19661 15.0985Z" fill="#A5A5AE"/>
</g>
<defs>
<clipPath id="clip0_44_10120">
<rect width="15.082" height="15.082" fill="white" transform="translate(0.458984 0.958984)"/>
</clipPath>
</defs>
</svg>
