<svg width="224" height="33" viewBox="0 0 224 33" fill="none" xmlns="http://www.w3.org/2000/svg">
<path d="M24.0004 19.8333C24.0004 22.0749 23.3357 24.266 22.0904 26.1298C20.8451 27.9936 19.075 29.4462 17.0042 30.304C14.9333 31.1618 12.6545 31.3862 10.456 30.9489C8.2576 30.5116 6.23819 29.4322 4.6532 27.8472C3.0682 26.2622 1.98881 24.2428 1.55151 22.0444C1.11421 19.8459 1.33865 17.5672 2.19644 15.4963C3.05423 13.4254 4.50685 11.6553 6.37061 10.41C8.23437 9.16469 10.4256 8.5 12.6671 8.5V19.8333H24.0004Z" fill="url(#paint0_linear_44_10096)"/>
<path d="M30.6667 10.1673C30.6667 14.7697 26.9356 18.5007 22.3333 18.5007H14V10.1673C14 5.56496 17.731 1.83398 22.3333 1.83398C26.9356 1.83398 30.6667 5.56496 30.6667 10.1673Z" fill="url(#paint1_linear_44_10096)"/>
<path d="M45.52 10.22H48.02V24.5H45.52V10.22ZM50.9664 14.16H53.1264V15.6H53.1864C53.3597 15.3467 53.5464 15.1133 53.7464 14.9C53.9464 14.6867 54.1664 14.5067 54.4064 14.36C54.6597 14.2133 54.9464 14.1 55.2664 14.02C55.5864 13.9267 55.9531 13.88 56.3664 13.88C56.9931 13.88 57.5731 14.02 58.1064 14.3C58.6531 14.58 59.0397 15.0133 59.2664 15.6C59.6531 15.0667 60.0997 14.6467 60.6064 14.34C61.1131 14.0333 61.7464 13.88 62.5064 13.88C63.5997 13.88 64.4464 14.1467 65.0464 14.68C65.6597 15.2133 65.9664 16.1067 65.9664 17.36V24.5H63.6864V18.46C63.6864 18.0467 63.6731 17.6733 63.6464 17.34C63.6197 16.9933 63.5397 16.7 63.4064 16.46C63.2864 16.2067 63.0997 16.0133 62.8464 15.88C62.5931 15.7467 62.2464 15.68 61.8064 15.68C61.0331 15.68 60.4731 15.92 60.1264 16.4C59.7797 16.88 59.6064 17.56 59.6064 18.44V24.5H57.3264V17.86C57.3264 17.14 57.1931 16.6 56.9264 16.24C56.6731 15.8667 56.1997 15.68 55.5064 15.68C55.2131 15.68 54.9264 15.74 54.6464 15.86C54.3797 15.98 54.1397 16.1533 53.9264 16.38C53.7264 16.6067 53.5597 16.8867 53.4264 17.22C53.3064 17.5533 53.2464 17.9333 53.2464 18.36V24.5H50.9664V14.16ZM77.2288 22.2C77.2288 22.48 77.2621 22.68 77.3288 22.8C77.4087 22.92 77.5554 22.98 77.7688 22.98C77.8354 22.98 77.9154 22.98 78.0087 22.98C78.1021 22.98 78.2088 22.9667 78.3288 22.94V24.52C78.2488 24.5467 78.1421 24.5733 78.0087 24.6C77.8887 24.64 77.7621 24.6733 77.6287 24.7C77.4954 24.7267 77.3621 24.7467 77.2288 24.76C77.0954 24.7733 76.9821 24.78 76.8887 24.78C76.4221 24.78 76.0354 24.6867 75.7287 24.5C75.4221 24.3133 75.2221 23.9867 75.1287 23.52C74.6754 23.96 74.1154 24.28 73.4488 24.48C72.7954 24.68 72.1621 24.78 71.5487 24.78C71.0821 24.78 70.6354 24.7133 70.2087 24.58C69.7821 24.46 69.4021 24.28 69.0687 24.04C68.7487 23.7867 68.4887 23.4733 68.2887 23.1C68.1021 22.7133 68.0087 22.2667 68.0087 21.76C68.0087 21.12 68.1221 20.6 68.3487 20.2C68.5887 19.8 68.8954 19.4867 69.2687 19.26C69.6554 19.0333 70.0821 18.8733 70.5487 18.78C71.0287 18.6733 71.5087 18.5933 71.9887 18.54C72.4021 18.46 72.7954 18.4067 73.1688 18.38C73.5421 18.34 73.8687 18.28 74.1487 18.2C74.4421 18.12 74.6688 18 74.8288 17.84C75.0021 17.6667 75.0887 17.4133 75.0887 17.08C75.0887 16.7867 75.0154 16.5467 74.8688 16.36C74.7354 16.1733 74.5621 16.0333 74.3487 15.94C74.1487 15.8333 73.9221 15.7667 73.6688 15.74C73.4154 15.7 73.1754 15.68 72.9487 15.68C72.3087 15.68 71.7821 15.8133 71.3687 16.08C70.9554 16.3467 70.7221 16.76 70.6687 17.32H68.3887C68.4287 16.6533 68.5887 16.1 68.8687 15.66C69.1487 15.22 69.5021 14.8667 69.9287 14.6C70.3687 14.3333 70.8621 14.1467 71.4087 14.04C71.9554 13.9333 72.5154 13.88 73.0887 13.88C73.5954 13.88 74.0954 13.9333 74.5888 14.04C75.0821 14.1467 75.5221 14.32 75.9087 14.56C76.3087 14.8 76.6288 15.1133 76.8688 15.5C77.1088 15.8733 77.2288 16.3333 77.2288 16.88V22.2ZM74.9487 19.32C74.6021 19.5467 74.1754 19.6867 73.6688 19.74C73.1621 19.78 72.6554 19.8467 72.1487 19.94C71.9087 19.98 71.6754 20.04 71.4487 20.12C71.2221 20.1867 71.0221 20.2867 70.8487 20.42C70.6754 20.54 70.5354 20.7067 70.4287 20.92C70.3354 21.12 70.2887 21.3667 70.2887 21.66C70.2887 21.9133 70.3621 22.1267 70.5087 22.3C70.6554 22.4733 70.8287 22.6133 71.0287 22.72C71.2421 22.8133 71.4687 22.88 71.7087 22.92C71.9621 22.96 72.1887 22.98 72.3887 22.98C72.6421 22.98 72.9154 22.9467 73.2088 22.88C73.5021 22.8133 73.7754 22.7 74.0287 22.54C74.2954 22.38 74.5154 22.18 74.6888 21.94C74.8621 21.6867 74.9487 21.38 74.9487 21.02V19.32ZM89.442 23.96C89.442 25.52 89.002 26.68 88.122 27.44C87.2554 28.2133 86.002 28.6 84.362 28.6C83.842 28.6 83.3154 28.5467 82.782 28.44C82.262 28.3333 81.782 28.1533 81.342 27.9C80.9154 27.6467 80.5554 27.3133 80.262 26.9C79.9687 26.4867 79.7954 25.98 79.742 25.38H82.022C82.0887 25.7 82.202 25.96 82.362 26.16C82.522 26.36 82.7087 26.5133 82.922 26.62C83.1487 26.74 83.3954 26.8133 83.662 26.84C83.9287 26.88 84.2087 26.9 84.502 26.9C85.422 26.9 86.0954 26.6733 86.522 26.22C86.9487 25.7667 87.162 25.1133 87.162 24.26V22.68H87.122C86.802 23.2533 86.362 23.7 85.802 24.02C85.2554 24.34 84.662 24.5 84.022 24.5C83.1954 24.5 82.4887 24.36 81.902 24.08C81.3287 23.7867 80.8487 23.3933 80.462 22.9C80.0887 22.3933 79.8154 21.8133 79.642 21.16C79.4687 20.5067 79.382 19.8067 79.382 19.06C79.382 18.3667 79.4887 17.7067 79.702 17.08C79.9154 16.4533 80.222 15.9067 80.622 15.44C81.022 14.96 81.5087 14.58 82.082 14.3C82.6687 14.02 83.3287 13.88 84.062 13.88C84.7154 13.88 85.3154 14.02 85.862 14.3C86.4087 14.5667 86.8287 14.9933 87.122 15.58H87.162V14.16H89.442V23.96ZM84.382 22.7C84.8887 22.7 85.3154 22.6 85.662 22.4C86.022 22.1867 86.3087 21.9133 86.522 21.58C86.7487 21.2333 86.9087 20.8467 87.002 20.42C87.1087 19.98 87.162 19.54 87.162 19.1C87.162 18.66 87.1087 18.2333 87.002 17.82C86.8954 17.4067 86.7287 17.04 86.502 16.72C86.2887 16.4 86.002 16.1467 85.642 15.96C85.2954 15.7733 84.8754 15.68 84.382 15.68C83.8754 15.68 83.4487 15.7867 83.102 16C82.7554 16.2133 82.4754 16.4933 82.262 16.84C82.0487 17.1733 81.8954 17.56 81.802 18C81.7087 18.4267 81.662 18.8533 81.662 19.28C81.662 19.7067 81.7154 20.1267 81.822 20.54C81.9287 20.94 82.0887 21.3 82.302 21.62C82.5287 21.94 82.8087 22.2 83.142 22.4C83.4887 22.6 83.902 22.7 84.382 22.7ZM99.0375 18.42C99.0108 18.06 98.9308 17.7133 98.7975 17.38C98.6775 17.0467 98.5042 16.76 98.2775 16.52C98.0642 16.2667 97.7975 16.0667 97.4775 15.92C97.1708 15.76 96.8242 15.68 96.4375 15.68C96.0375 15.68 95.6708 15.7533 95.3375 15.9C95.0175 16.0333 94.7375 16.2267 94.4975 16.48C94.2708 16.72 94.0842 17.0067 93.9375 17.34C93.8042 17.6733 93.7308 18.0333 93.7175 18.42H99.0375ZM93.7175 19.92C93.7175 20.32 93.7708 20.7067 93.8775 21.08C93.9975 21.4533 94.1708 21.78 94.3975 22.06C94.6242 22.34 94.9108 22.5667 95.2575 22.74C95.6042 22.9 96.0175 22.98 96.4975 22.98C97.1642 22.98 97.6975 22.84 98.0975 22.56C98.5108 22.2667 98.8175 21.8333 99.0175 21.26H101.177C101.057 21.82 100.851 22.32 100.557 22.76C100.264 23.2 99.9108 23.5733 99.4975 23.88C99.0842 24.1733 98.6175 24.3933 98.0975 24.54C97.5908 24.7 97.0575 24.78 96.4975 24.78C95.6842 24.78 94.9642 24.6467 94.3375 24.38C93.7108 24.1133 93.1775 23.74 92.7375 23.26C92.3108 22.78 91.9842 22.2067 91.7575 21.54C91.5442 20.8733 91.4375 20.14 91.4375 19.34C91.4375 18.6067 91.5508 17.9133 91.7775 17.26C92.0175 16.5933 92.3508 16.0133 92.7775 15.52C93.2175 15.0133 93.7442 14.6133 94.3575 14.32C94.9708 14.0267 95.6642 13.88 96.4375 13.88C97.2508 13.88 97.9775 14.0533 98.6175 14.4C99.2708 14.7333 99.8108 15.18 100.237 15.74C100.664 16.3 100.971 16.9467 101.157 17.68C101.357 18.4 101.411 19.1467 101.318 19.92H93.7175ZM104.971 21.18C105.037 21.8467 105.291 22.3133 105.731 22.58C106.171 22.8467 106.697 22.98 107.311 22.98C107.524 22.98 107.764 22.9667 108.031 22.94C108.311 22.9 108.571 22.8333 108.811 22.74C109.051 22.6467 109.244 22.5133 109.391 22.34C109.551 22.1533 109.624 21.9133 109.611 21.62C109.597 21.3267 109.491 21.0867 109.291 20.9C109.091 20.7133 108.831 20.5667 108.511 20.46C108.204 20.34 107.851 20.24 107.451 20.16C107.051 20.08 106.644 19.9933 106.231 19.9C105.804 19.8067 105.391 19.6933 104.991 19.56C104.604 19.4267 104.251 19.2467 103.931 19.02C103.624 18.7933 103.377 18.5067 103.191 18.16C103.004 17.8 102.911 17.36 102.911 16.84C102.911 16.28 103.044 15.8133 103.311 15.44C103.591 15.0533 103.937 14.7467 104.351 14.52C104.777 14.28 105.244 14.1133 105.751 14.02C106.271 13.9267 106.764 13.88 107.231 13.88C107.764 13.88 108.271 13.94 108.751 14.06C109.244 14.1667 109.684 14.3467 110.071 14.6C110.471 14.8533 110.797 15.1867 111.051 15.6C111.317 16 111.484 16.4867 111.551 17.06H109.171C109.064 16.5133 108.811 16.1467 108.411 15.96C108.024 15.7733 107.577 15.68 107.071 15.68C106.911 15.68 106.717 15.6933 106.491 15.72C106.277 15.7467 106.071 15.8 105.871 15.88C105.684 15.9467 105.524 16.0533 105.391 16.2C105.257 16.3333 105.191 16.5133 105.191 16.74C105.191 17.02 105.284 17.2467 105.471 17.42C105.671 17.5933 105.924 17.74 106.231 17.86C106.551 17.9667 106.911 18.06 107.311 18.14C107.711 18.22 108.124 18.3067 108.551 18.4C108.964 18.4933 109.371 18.6067 109.771 18.74C110.171 18.8733 110.524 19.0533 110.831 19.28C111.151 19.5067 111.404 19.7933 111.591 20.14C111.791 20.4867 111.891 20.9133 111.891 21.42C111.891 22.0333 111.751 22.5533 111.471 22.98C111.191 23.4067 110.824 23.7533 110.371 24.02C109.931 24.2867 109.437 24.48 108.891 24.6C108.344 24.72 107.804 24.78 107.271 24.78C106.617 24.78 106.011 24.7067 105.451 24.56C104.904 24.4133 104.424 24.1933 104.011 23.9C103.611 23.5933 103.291 23.22 103.051 22.78C102.824 22.3267 102.704 21.7933 102.691 21.18H104.971ZM117.962 10.22H120.622L126.122 24.5H123.442L122.102 20.72H116.402L115.062 24.5H112.482L117.962 10.22ZM117.082 18.82H121.442L119.302 12.68H119.242L117.082 18.82ZM127.682 10.22H130.182V24.5H127.682V10.22Z" fill="white" fill-opacity="0.8"/>
<defs>
<linearGradient id="paint0_linear_44_10096" x1="1.18321" y1="10.6926" x2="20.917" y2="30.865" gradientUnits="userSpaceOnUse">
<stop stop-color="#F9A65A"/>
<stop offset="0.505208" stop-color="#FF74AD"/>
<stop offset="1" stop-color="#9A6BFE"/>
</linearGradient>
<linearGradient id="paint1_linear_44_10096" x1="13.8893" y1="3.44622" x2="28.3995" y2="18.2788" gradientUnits="userSpaceOnUse">
<stop stop-color="#F9A65A"/>
<stop offset="0.505208" stop-color="#FF74AD"/>
<stop offset="1" stop-color="#9A6BFE"/>
</linearGradient>
</defs>
</svg>
