<svg width="18" height="19" viewBox="0 0 18 19" fill="none" xmlns="http://www.w3.org/2000/svg">
<path d="M5.20313 4.25075C5.20293 4.64857 5.0447 5.03003 4.76326 5.31119C4.48181 5.59235 4.1002 5.7502 3.70238 5.75C3.30455 5.7498 2.9231 5.59158 2.64193 5.31013C2.36077 5.02868 2.20293 4.64707 2.20313 4.24925C2.20332 3.85143 2.36155 3.46997 2.643 3.18881C2.92444 2.90765 3.30605 2.7498 3.70388 2.75C4.1017 2.7502 4.48315 2.90843 4.76432 3.18987C5.04548 3.47132 5.20332 3.85293 5.20313 4.25075ZM5.24813 6.86075H2.24813V16.2507H5.24813V6.86075ZM9.98812 6.86075H7.00313V16.2507H9.95813V11.3233C9.95813 8.57825 13.5356 8.32325 13.5356 11.3233V16.2507H16.4981V10.3033C16.4981 5.67575 11.2031 5.84825 9.95813 8.12075L9.98812 6.86075Z" fill="#A5A5AE"/>
</svg>
